<mxfile host="app.diagrams.net" modified="2024-08-29T12:07:37.506Z" agent="Mozilla/5.0 (Windows NT 10.0; Win64; x64) AppleWebKit/537.36 (KHTML, like Gecko) Chrome/128.0.0.0 Safari/537.36" etag="jkYqJ7JtykIAjciIU7Zk" version="24.3.1" type="device">
  <diagram id="C5RBs43oDa-KdzZeNtuy" name="Page-1">
    <mxGraphModel dx="1434" dy="772" grid="1" gridSize="10" guides="1" tooltips="1" connect="1" arrows="1" fold="1" page="1" pageScale="1" pageWidth="827" pageHeight="1169" math="0" shadow="0">
      <root>
        <mxCell id="WIyWlLk6GJQsqaUBKTNV-0" />
        <mxCell id="WIyWlLk6GJQsqaUBKTNV-1" parent="WIyWlLk6GJQsqaUBKTNV-0" />
        <mxCell id="tSFM39khERS4qAWQDe8w-8" style="edgeStyle=orthogonalEdgeStyle;rounded=0;orthogonalLoop=1;jettySize=auto;html=1;exitX=0.5;exitY=1;exitDx=0;exitDy=0;entryX=0.5;entryY=0;entryDx=0;entryDy=0;" edge="1" parent="WIyWlLk6GJQsqaUBKTNV-1" source="tSFM39khERS4qAWQDe8w-0" target="tSFM39khERS4qAWQDe8w-1">
          <mxGeometry relative="1" as="geometry" />
        </mxCell>
        <mxCell id="tSFM39khERS4qAWQDe8w-0" value="Se realiza una entrada de stock" style="rounded=1;whiteSpace=wrap;html=1;fontSize=12;glass=0;strokeWidth=1;shadow=0;" vertex="1" parent="WIyWlLk6GJQsqaUBKTNV-1">
          <mxGeometry x="590" y="80" width="120" height="40" as="geometry" />
        </mxCell>
        <mxCell id="tSFM39khERS4qAWQDe8w-4" style="edgeStyle=orthogonalEdgeStyle;rounded=0;orthogonalLoop=1;jettySize=auto;html=1;exitX=0;exitY=0.5;exitDx=0;exitDy=0;entryX=0.5;entryY=0;entryDx=0;entryDy=0;" edge="1" parent="WIyWlLk6GJQsqaUBKTNV-1" source="tSFM39khERS4qAWQDe8w-1" target="tSFM39khERS4qAWQDe8w-2">
          <mxGeometry relative="1" as="geometry" />
        </mxCell>
        <mxCell id="tSFM39khERS4qAWQDe8w-1" value="Se necesita en pedidos?" style="rhombus;whiteSpace=wrap;html=1;shadow=0;fontFamily=Helvetica;fontSize=12;align=center;strokeWidth=1;spacing=6;spacingTop=-4;" vertex="1" parent="WIyWlLk6GJQsqaUBKTNV-1">
          <mxGeometry x="590" y="160" width="120" height="100" as="geometry" />
        </mxCell>
        <mxCell id="tSFM39khERS4qAWQDe8w-15" style="edgeStyle=orthogonalEdgeStyle;rounded=0;orthogonalLoop=1;jettySize=auto;html=1;exitX=0.5;exitY=1;exitDx=0;exitDy=0;entryX=0.5;entryY=0;entryDx=0;entryDy=0;" edge="1" parent="WIyWlLk6GJQsqaUBKTNV-1" source="tSFM39khERS4qAWQDe8w-2" target="tSFM39khERS4qAWQDe8w-14">
          <mxGeometry relative="1" as="geometry" />
        </mxCell>
        <mxCell id="tSFM39khERS4qAWQDe8w-2" value="Se aumenta el stock" style="rounded=1;whiteSpace=wrap;html=1;fontSize=12;glass=0;strokeWidth=1;shadow=0;" vertex="1" parent="WIyWlLk6GJQsqaUBKTNV-1">
          <mxGeometry x="470" y="260" width="120" height="40" as="geometry" />
        </mxCell>
        <mxCell id="tSFM39khERS4qAWQDe8w-5" style="edgeStyle=orthogonalEdgeStyle;rounded=0;orthogonalLoop=1;jettySize=auto;html=1;exitX=1;exitY=0.5;exitDx=0;exitDy=0;entryX=0.5;entryY=0;entryDx=0;entryDy=0;" edge="1" parent="WIyWlLk6GJQsqaUBKTNV-1" source="tSFM39khERS4qAWQDe8w-1" target="tSFM39khERS4qAWQDe8w-10">
          <mxGeometry relative="1" as="geometry">
            <mxPoint x="756.96" y="258" as="targetPoint" />
          </mxGeometry>
        </mxCell>
        <mxCell id="tSFM39khERS4qAWQDe8w-6" value="No" style="text;html=1;align=center;verticalAlign=middle;resizable=0;points=[];autosize=1;strokeColor=none;fillColor=none;" vertex="1" parent="WIyWlLk6GJQsqaUBKTNV-1">
          <mxGeometry x="540" y="178" width="40" height="30" as="geometry" />
        </mxCell>
        <mxCell id="tSFM39khERS4qAWQDe8w-7" value="Si" style="text;html=1;align=center;verticalAlign=middle;resizable=0;points=[];autosize=1;strokeColor=none;fillColor=none;" vertex="1" parent="WIyWlLk6GJQsqaUBKTNV-1">
          <mxGeometry x="725" y="178" width="30" height="30" as="geometry" />
        </mxCell>
        <mxCell id="tSFM39khERS4qAWQDe8w-13" style="edgeStyle=orthogonalEdgeStyle;rounded=0;orthogonalLoop=1;jettySize=auto;html=1;exitX=0.5;exitY=1;exitDx=0;exitDy=0;entryX=0.5;entryY=0;entryDx=0;entryDy=0;" edge="1" parent="WIyWlLk6GJQsqaUBKTNV-1" source="tSFM39khERS4qAWQDe8w-9" target="tSFM39khERS4qAWQDe8w-12">
          <mxGeometry relative="1" as="geometry">
            <Array as="points">
              <mxPoint x="750" y="390" />
              <mxPoint x="650" y="390" />
            </Array>
          </mxGeometry>
        </mxCell>
        <mxCell id="tSFM39khERS4qAWQDe8w-9" value="Se rellenan los pedidos con stock faltante" style="rounded=1;whiteSpace=wrap;html=1;fontSize=12;glass=0;strokeWidth=1;shadow=0;" vertex="1" parent="WIyWlLk6GJQsqaUBKTNV-1">
          <mxGeometry x="690" y="330" width="120" height="40" as="geometry" />
        </mxCell>
        <mxCell id="tSFM39khERS4qAWQDe8w-11" style="edgeStyle=orthogonalEdgeStyle;rounded=0;orthogonalLoop=1;jettySize=auto;html=1;exitX=0.5;exitY=1;exitDx=0;exitDy=0;entryX=0.5;entryY=0;entryDx=0;entryDy=0;" edge="1" parent="WIyWlLk6GJQsqaUBKTNV-1" source="tSFM39khERS4qAWQDe8w-10" target="tSFM39khERS4qAWQDe8w-9">
          <mxGeometry relative="1" as="geometry" />
        </mxCell>
        <mxCell id="tSFM39khERS4qAWQDe8w-10" value="Se asigna la entrada a un pedido?" style="rounded=1;whiteSpace=wrap;html=1;fontSize=12;glass=0;strokeWidth=1;shadow=0;" vertex="1" parent="WIyWlLk6GJQsqaUBKTNV-1">
          <mxGeometry x="690" y="260" width="120" height="40" as="geometry" />
        </mxCell>
        <mxCell id="tSFM39khERS4qAWQDe8w-12" value="Fin" style="rounded=1;whiteSpace=wrap;html=1;fontSize=12;glass=0;strokeWidth=1;shadow=0;" vertex="1" parent="WIyWlLk6GJQsqaUBKTNV-1">
          <mxGeometry x="590" y="410" width="120" height="40" as="geometry" />
        </mxCell>
        <mxCell id="tSFM39khERS4qAWQDe8w-16" style="edgeStyle=orthogonalEdgeStyle;rounded=0;orthogonalLoop=1;jettySize=auto;html=1;exitX=0.5;exitY=1;exitDx=0;exitDy=0;entryX=0.5;entryY=0;entryDx=0;entryDy=0;" edge="1" parent="WIyWlLk6GJQsqaUBKTNV-1" source="tSFM39khERS4qAWQDe8w-14" target="tSFM39khERS4qAWQDe8w-12">
          <mxGeometry relative="1" as="geometry" />
        </mxCell>
        <mxCell id="tSFM39khERS4qAWQDe8w-14" value="Lo colocan enalamcÃ©n" style="rounded=1;whiteSpace=wrap;html=1;fontSize=12;glass=0;strokeWidth=1;shadow=0;" vertex="1" parent="WIyWlLk6GJQsqaUBKTNV-1">
          <mxGeometry x="470" y="330" width="120" height="40" as="geometry" />
        </mxCell>
        <mxCell id="tSFM39khERS4qAWQDe8w-36" style="edgeStyle=orthogonalEdgeStyle;rounded=0;orthogonalLoop=1;jettySize=auto;html=1;exitX=0.5;exitY=1;exitDx=0;exitDy=0;entryX=0.5;entryY=0;entryDx=0;entryDy=0;" edge="1" parent="WIyWlLk6GJQsqaUBKTNV-1" source="tSFM39khERS4qAWQDe8w-17" target="tSFM39khERS4qAWQDe8w-18">
          <mxGeometry relative="1" as="geometry" />
        </mxCell>
        <mxCell id="tSFM39khERS4qAWQDe8w-17" value="Entra un pedido de venta" style="rounded=1;whiteSpace=wrap;html=1;fontSize=12;glass=0;strokeWidth=1;shadow=0;" vertex="1" parent="WIyWlLk6GJQsqaUBKTNV-1">
          <mxGeometry x="140" y="70" width="120" height="40" as="geometry" />
        </mxCell>
        <mxCell id="tSFM39khERS4qAWQDe8w-26" style="edgeStyle=orthogonalEdgeStyle;rounded=0;orthogonalLoop=1;jettySize=auto;html=1;exitX=0;exitY=0.5;exitDx=0;exitDy=0;entryX=0.5;entryY=0;entryDx=0;entryDy=0;" edge="1" parent="WIyWlLk6GJQsqaUBKTNV-1" source="tSFM39khERS4qAWQDe8w-18" target="tSFM39khERS4qAWQDe8w-20">
          <mxGeometry relative="1" as="geometry" />
        </mxCell>
        <mxCell id="tSFM39khERS4qAWQDe8w-33" style="edgeStyle=orthogonalEdgeStyle;rounded=0;orthogonalLoop=1;jettySize=auto;html=1;exitX=1;exitY=0.5;exitDx=0;exitDy=0;entryX=0.5;entryY=0;entryDx=0;entryDy=0;" edge="1" parent="WIyWlLk6GJQsqaUBKTNV-1" source="tSFM39khERS4qAWQDe8w-18" target="tSFM39khERS4qAWQDe8w-19">
          <mxGeometry relative="1" as="geometry" />
        </mxCell>
        <mxCell id="tSFM39khERS4qAWQDe8w-18" value="Hay stock suficiente para sacarlo" style="rhombus;whiteSpace=wrap;html=1;shadow=0;fontFamily=Helvetica;fontSize=12;align=center;strokeWidth=1;spacing=6;spacingTop=-4;" vertex="1" parent="WIyWlLk6GJQsqaUBKTNV-1">
          <mxGeometry x="130" y="140" width="140" height="120" as="geometry" />
        </mxCell>
        <mxCell id="tSFM39khERS4qAWQDe8w-32" style="edgeStyle=orthogonalEdgeStyle;rounded=0;orthogonalLoop=1;jettySize=auto;html=1;exitX=0.5;exitY=1;exitDx=0;exitDy=0;" edge="1" parent="WIyWlLk6GJQsqaUBKTNV-1" source="tSFM39khERS4qAWQDe8w-19" target="tSFM39khERS4qAWQDe8w-22">
          <mxGeometry relative="1" as="geometry" />
        </mxCell>
        <mxCell id="tSFM39khERS4qAWQDe8w-19" value="Se le asignan el stock libre&lt;span style=&quot;color: rgba(0, 0, 0, 0); font-family: monospace; font-size: 0px; text-align: start; text-wrap: nowrap;&quot;&gt;%3CmxGraphModel%3E%3Croot%3E%3CmxCell%20id%3D%220%22%2F%3E%3CmxCell%20id%3D%221%22%20parent%3D%220%22%2F%3E%3CmxCell%20id%3D%222%22%20value%3D%22Se%20le%20asignan%20los%20items%26amp%3Bnbsp%3B%22%20style%3D%22rounded%3D1%3BwhiteSpace%3Dwrap%3Bhtml%3D1%3BfontSize%3D12%3Bglass%3D0%3BstrokeWidth%3D1%3Bshadow%3D0%3B%22%20vertex%3D%221%22%20parent%3D%221%22%3E%3CmxGeometry%20x%3D%2230%22%20y%3D%22290%22%20width%3D%22120%22%20height%3D%2240%22%20as%3D%22geometry%22%2F%3E%3C%2FmxCell%3E%3C%2Froot%3E%3C%2FmxGraphModel%3E&lt;/span&gt;&amp;nbsp;&lt;span style=&quot;color: rgba(0, 0, 0, 0); font-family: monospace; font-size: 0px; text-align: start; text-wrap: nowrap;&quot;&gt;%3CmxGraphModel%3E%3Croot%3E%3CmxCell%20id%3D%220%22%2F%3E%3CmxCell%20id%3D%221%22%20parent%3D%220%22%2F%3E%3CmxCell%20id%3D%222%22%20value%3D%22Se%20le%20asignan%20los%20items%26amp%3Bnbsp%3B%22%20style%3D%22rounded%3D1%3BwhiteSpace%3Dwrap%3Bhtml%3D1%3BfontSize%3D12%3Bglass%3D0%3BstrokeWidth%3D1%3Bshadow%3D0%3B%22%20vertex%3D%221%22%20parent%3D%221%22%3E%3CmxGeometry%20x%3D%2230%22%20y%3D%22290%22%20width%3D%22120%22%20height%3D%2240%22%20as%3D%22geometry%22%2F%3E%3C%2FmxCell%3E%3C%2Froot%3E%3C%2FmxGraphModel%3E&lt;/span&gt;" style="rounded=1;whiteSpace=wrap;html=1;fontSize=12;glass=0;strokeWidth=1;shadow=0;" vertex="1" parent="WIyWlLk6GJQsqaUBKTNV-1">
          <mxGeometry x="250" y="290" width="120" height="40" as="geometry" />
        </mxCell>
        <mxCell id="tSFM39khERS4qAWQDe8w-27" style="edgeStyle=orthogonalEdgeStyle;rounded=0;orthogonalLoop=1;jettySize=auto;html=1;exitX=0.5;exitY=1;exitDx=0;exitDy=0;entryX=0.5;entryY=0;entryDx=0;entryDy=0;" edge="1" parent="WIyWlLk6GJQsqaUBKTNV-1" source="tSFM39khERS4qAWQDe8w-20" target="tSFM39khERS4qAWQDe8w-21">
          <mxGeometry relative="1" as="geometry" />
        </mxCell>
        <mxCell id="tSFM39khERS4qAWQDe8w-20" value="Se le asignan los items&amp;nbsp;" style="rounded=1;whiteSpace=wrap;html=1;fontSize=12;glass=0;strokeWidth=1;shadow=0;" vertex="1" parent="WIyWlLk6GJQsqaUBKTNV-1">
          <mxGeometry x="30" y="290" width="120" height="40" as="geometry" />
        </mxCell>
        <mxCell id="tSFM39khERS4qAWQDe8w-28" style="edgeStyle=orthogonalEdgeStyle;rounded=0;orthogonalLoop=1;jettySize=auto;html=1;exitX=0.5;exitY=1;exitDx=0;exitDy=0;entryX=0.5;entryY=0;entryDx=0;entryDy=0;" edge="1" parent="WIyWlLk6GJQsqaUBKTNV-1" source="tSFM39khERS4qAWQDe8w-21" target="tSFM39khERS4qAWQDe8w-25">
          <mxGeometry relative="1" as="geometry">
            <Array as="points">
              <mxPoint x="90" y="580" />
              <mxPoint x="200" y="580" />
            </Array>
          </mxGeometry>
        </mxCell>
        <mxCell id="tSFM39khERS4qAWQDe8w-21" value="Se lo pone en pendiente de prepar" style="rounded=1;whiteSpace=wrap;html=1;fontSize=12;glass=0;strokeWidth=1;shadow=0;" vertex="1" parent="WIyWlLk6GJQsqaUBKTNV-1">
          <mxGeometry x="30" y="370" width="120" height="40" as="geometry" />
        </mxCell>
        <mxCell id="tSFM39khERS4qAWQDe8w-31" style="edgeStyle=orthogonalEdgeStyle;rounded=0;orthogonalLoop=1;jettySize=auto;html=1;exitX=0.5;exitY=1;exitDx=0;exitDy=0;" edge="1" parent="WIyWlLk6GJQsqaUBKTNV-1" source="tSFM39khERS4qAWQDe8w-22" target="tSFM39khERS4qAWQDe8w-23">
          <mxGeometry relative="1" as="geometry" />
        </mxCell>
        <mxCell id="tSFM39khERS4qAWQDe8w-22" value="Se pasa a en espera de stock" style="rounded=1;whiteSpace=wrap;html=1;fontSize=12;glass=0;strokeWidth=1;shadow=0;" vertex="1" parent="WIyWlLk6GJQsqaUBKTNV-1">
          <mxGeometry x="250" y="370" width="120" height="40" as="geometry" />
        </mxCell>
        <mxCell id="tSFM39khERS4qAWQDe8w-30" style="edgeStyle=orthogonalEdgeStyle;rounded=0;orthogonalLoop=1;jettySize=auto;html=1;exitX=0.5;exitY=1;exitDx=0;exitDy=0;entryX=0.5;entryY=0;entryDx=0;entryDy=0;" edge="1" parent="WIyWlLk6GJQsqaUBKTNV-1" source="tSFM39khERS4qAWQDe8w-23" target="tSFM39khERS4qAWQDe8w-24">
          <mxGeometry relative="1" as="geometry" />
        </mxCell>
        <mxCell id="tSFM39khERS4qAWQDe8w-23" value="Se genera pedido de compra y se registra el stock a pedir aÃ±adiendolo al total" style="rounded=1;whiteSpace=wrap;html=1;fontSize=12;glass=0;strokeWidth=1;shadow=0;" vertex="1" parent="WIyWlLk6GJQsqaUBKTNV-1">
          <mxGeometry x="250" y="430" width="120" height="70" as="geometry" />
        </mxCell>
        <mxCell id="tSFM39khERS4qAWQDe8w-29" style="edgeStyle=orthogonalEdgeStyle;rounded=0;orthogonalLoop=1;jettySize=auto;html=1;exitX=0.5;exitY=1;exitDx=0;exitDy=0;entryX=0.5;entryY=0;entryDx=0;entryDy=0;" edge="1" parent="WIyWlLk6GJQsqaUBKTNV-1" source="tSFM39khERS4qAWQDe8w-24" target="tSFM39khERS4qAWQDe8w-25">
          <mxGeometry relative="1" as="geometry" />
        </mxCell>
        <mxCell id="tSFM39khERS4qAWQDe8w-24" value="Se le completa el stock con entra de material" style="rounded=1;whiteSpace=wrap;html=1;fontSize=12;glass=0;strokeWidth=1;shadow=0;" vertex="1" parent="WIyWlLk6GJQsqaUBKTNV-1">
          <mxGeometry x="250" y="520" width="120" height="40" as="geometry" />
        </mxCell>
        <mxCell id="tSFM39khERS4qAWQDe8w-25" value="Sale" style="rounded=1;whiteSpace=wrap;html=1;fontSize=12;glass=0;strokeWidth=1;shadow=0;" vertex="1" parent="WIyWlLk6GJQsqaUBKTNV-1">
          <mxGeometry x="140" y="600" width="120" height="40" as="geometry" />
        </mxCell>
        <mxCell id="tSFM39khERS4qAWQDe8w-34" value="si" style="text;html=1;align=center;verticalAlign=middle;resizable=0;points=[];autosize=1;strokeColor=none;fillColor=none;" vertex="1" parent="WIyWlLk6GJQsqaUBKTNV-1">
          <mxGeometry x="105" y="168" width="30" height="30" as="geometry" />
        </mxCell>
        <mxCell id="tSFM39khERS4qAWQDe8w-35" value="no" style="text;html=1;align=center;verticalAlign=middle;resizable=0;points=[];autosize=1;strokeColor=none;fillColor=none;" vertex="1" parent="WIyWlLk6GJQsqaUBKTNV-1">
          <mxGeometry x="270" y="168" width="40" height="30" as="geometry" />
        </mxCell>
      </root>
    </mxGraphModel>
  </diagram>
</mxfile>
